<?xml version="1.0" encoding="UTF-8"?>
<svg version="1.1" xmlns="http://www.w3.org/2000/svg" width="64" height="64">
<path d="M0 0 C21.12 0 42.24 0 64 0 C64 21.12 64 42.24 64 64 C42.88 64 21.76 64 0 64 C0 42.88 0 21.76 0 0 Z " fill="#020000" transform="translate(0,0)"/>
<path d="M0 0 C2.79503689 1.00334658 5.29247703 1.28620316 8.25 1.5 C9.22582031 1.57476562 10.20164063 1.64953125 11.20703125 1.7265625 C11.94308594 1.77554688 12.67914063 1.82453125 13.4375 1.875 C10.38301244 4.92948756 8.09761284 4.83662961 3.80859375 5.0859375 C-0.87332776 5.0636224 -4.60081466 3.66700972 -8.875 1.875 C-14.04340336 -0.36027283 -14.04340336 -0.36027283 -19.5625 -1.125 C-9.709721 3.38740719 -1.53481622 5.84118701 9.4375 5.875 C7.4375 8.875 7.4375 8.875 4.4375 9.875 C-3.01086734 10.52107895 -9.60289582 10.73068638 -16.4375 7.375 C-23.92002478 3.73623795 -31.45022369 4.44247342 -39.5625 4.875 C-26.01885724 -8.81427333 -16.99850641 -7.46275891 0 0 Z " fill="#D10010" transform="translate(40.5625,35.125)"/>
<path d="M0 0 C2.45776367 0.08618164 2.45776367 0.08618164 5 1 C6.4855957 3.00952148 6.4855957 3.00952148 7.67578125 5.62109375 C8.11083984 6.55630859 8.54589844 7.49152344 8.99414062 8.45507812 C9.42919922 9.43927734 9.86425781 10.42347656 10.3125 11.4375 C10.9940918 12.90799805 10.9940918 12.90799805 11.68945312 14.40820312 C15 21.64162359 15 21.64162359 15 24 C12.8125 24.5 12.8125 24.5 10 24 C7.00582974 20.42741049 5.05134918 16.1588997 3 12 C2.01 12 1.02 12 0 12 C-0.99 13.98 -1.98 15.96 -3 18 C-4.98 18 -6.96 18 -9 18 C-7.20871285 11.81191712 -4.61986886 4.61986886 0 0 Z " fill="#D70011" transform="translate(30,10)"/>
<path d="M0 0 C1.796875 0.15234375 1.796875 0.15234375 4 1 C5.703125 3.50390625 5.703125 3.50390625 7.25 6.5625 C7.77078125 7.57441406 8.2915625 8.58632813 8.828125 9.62890625 C9.21484375 10.41136719 9.6015625 11.19382812 10 12 C11.98 12 13.96 12 16 12 C16 12.66 16 13.32 16 14 C11.10819226 15.20469892 8.43616615 14.75810612 3.875 12.6875 C2.86179687 12.23761719 1.84859375 11.78773437 0.8046875 11.32421875 C-1.48022128 10.24541084 -3.74879949 9.14714284 -6 8 C-5.38125 7.4225 -4.7625 6.845 -4.125 6.25 C-2.18652947 4.19750179 -1.09985751 2.56633418 0 0 Z " fill="#1C0002" transform="translate(30,21)"/>
<path d="M0 0 C2.97 0.495 2.97 0.495 6 1 C4.68139111 5.61513112 2.78644563 9.09897612 0 13 C-1.32 12.67 -2.64 12.34 -4 12 C-3.45660208 7.43545749 -2.20536179 4.0271824 0 0 Z " fill="#D80011" transform="translate(14,41)"/>
<path d="M0 0 C8.78519874 -0.81233002 15.18781726 0.51287882 23.16015625 3.85253906 C28.85307021 6.15800276 33.85762662 6.70272916 40 6 C39.67 6.99 39.34 7.98 39 9 C30.09446971 8.97255615 23.41489416 7.71835344 15.36083984 4.16699219 C10.2266017 1.94626811 5.57099181 1.02621643 0 1 C0 0.67 0 0.34 0 0 Z " fill="#350105" transform="translate(11,33)"/>
<path d="M0 0 C3.07692308 5.41538462 3.07692308 5.41538462 2.6875 8.375 C2.460625 8.91125 2.23375 9.4475 2 10 C-0.375 9.75 -0.375 9.75 -3 9 C-4.7941758 6.43689172 -5 5.16880694 -5 2 C-2 0 -2 0 0 0 Z " fill="#D00010" transform="translate(51,44)"/>
<path d="M0 0 C0 0.99 0 1.98 0 3 C-0.99 3.33 -1.98 3.66 -3 4 C-3.33 4.66 -3.66 5.32 -4 6 C-4 5.34 -4 4.68 -4 4 C-7.96 4 -11.92 4 -16 4 C-16 3.67 -16 3.34 -16 3 C-15.18015625 2.95101562 -14.3603125 2.90203125 -13.515625 2.8515625 C-12.43796875 2.77679688 -11.3603125 2.70203125 -10.25 2.625 C-9.18265625 2.55539063 -8.1153125 2.48578125 -7.015625 2.4140625 C-4.19793568 2.0271777 -2.4169634 1.44313834 0 0 Z " fill="#510107" transform="translate(49,42)"/>
</svg>
